<?xml version="1.0" standalone="no"?><!DOCTYPE svg PUBLIC "-//W3C//DTD SVG 1.1//EN" "http://www.w3.org/Graphics/SVG/1.1/DTD/svg11.dtd"><svg t="1574389493569" class="icon" viewBox="0 0 1024 1024" version="1.1" xmlns="http://www.w3.org/2000/svg" p-id="2324" xmlns:xlink="http://www.w3.org/1999/xlink" width="200" height="200"><defs><style type="text/css"></style></defs><path d="M864.426667 333.653333l66.986666-70.613333a26.666667 26.666667 0 0 0-38.826666-36.693333l-65.066667 68.48-64-68.48a26.666667 26.666667 0 1 0-38.613333 36.693333l66.986666 70.613333-66.986666 70.4a26.666667 26.666667 0 0 0 0 37.76 26.24 26.24 0 0 0 18.346666 7.253334 26.88 26.88 0 0 0 19.413334-8.32l64-68.48 65.066666 68.48a26.88 26.88 0 0 0 19.413334 8.32 26.24 26.24 0 0 0 18.346666-7.253334 26.88 26.88 0 0 0 0-37.76zM131.413333 440.746667l65.066667-68.48 64 68.48a26.88 26.88 0 0 0 19.413333 8.32 26.24 26.24 0 0 0 18.346667-7.253334 26.666667 26.666667 0 0 0 0-37.76l-66.986667-70.4 66.986667-70.613333a26.666667 26.666667 0 1 0-38.613333-36.693333l-64 68.48-64.213334-68.48a26.666667 26.666667 0 1 0-38.826666 36.693333l66.986666 70.613333-66.986666 70.4a26.88 26.88 0 0 0 0 37.76 26.24 26.24 0 0 0 18.346666 7.253334 26.88 26.88 0 0 0 20.48-8.32zM912.853333 756.906667c-371.626667-236.586667-663.04-73.173333-787.413333-3.413334A26.666667 26.666667 0 0 0 151.466667 800c116.053333-64 388.053333-217.6 732.586666 1.92a26.88 26.88 0 0 0 14.293334 4.053333 26.666667 26.666667 0 0 0 14.506666-49.066666z" p-id="2325"></path></svg>