<?xml version="1.0" standalone="no"?><!DOCTYPE svg PUBLIC "-//W3C//DTD SVG 1.1//EN" "http://www.w3.org/Graphics/SVG/1.1/DTD/svg11.dtd"><svg t="1568855439105" class="icon" viewBox="0 0 1024 1024" version="1.1" xmlns="http://www.w3.org/2000/svg" p-id="9642" xmlns:xlink="http://www.w3.org/1999/xlink" width="200" height="200"><defs><style type="text/css"></style></defs><path d="M810.666667 640a42.666667 42.666667 0 0 1 85.333333 0v128a128 128 0 0 1-128 128h-128a42.666667 42.666667 0 0 1 0-85.333333h128a42.666667 42.666667 0 0 0 42.666667-42.666667v-128z m-341.333334 170.666667a42.666667 42.666667 0 0 1 0 85.333333H256a128 128 0 0 1-128-128V256a128 128 0 0 1 128-128h512a128 128 0 0 1 128 128v213.333333a42.666667 42.666667 0 0 1-85.333333 0V256a42.666667 42.666667 0 0 0-42.666667-42.666667H256a42.666667 42.666667 0 0 0-42.666667 42.666667v512a42.666667 42.666667 0 0 0 42.666667 42.666667h213.333333z m-128-170.666667V384a42.666667 42.666667 0 0 1 42.666667-42.666667h256a42.666667 42.666667 0 0 1 42.666667 42.666667v256a42.666667 42.666667 0 0 1-42.666667 42.666667H384a42.666667 42.666667 0 0 1-42.666667-42.666667z" p-id="9643"></path></svg>