<?xml version="1.0" standalone="no"?><!DOCTYPE svg PUBLIC "-//W3C//DTD SVG 1.1//EN" "http://www.w3.org/Graphics/SVG/1.1/DTD/svg11.dtd"><svg t="1568856016620" class="icon" viewBox="0 0 1024 1024" version="1.1" xmlns="http://www.w3.org/2000/svg" p-id="7334" xmlns:xlink="http://www.w3.org/1999/xlink" width="200" height="200"><defs><style type="text/css"></style></defs><path d="M668.739 1.72H240.492c-75.956 0-137.749 61.788-137.749 137.739V884.54c0 75.945 61.793 137.734 137.749 137.734h543.022c75.955 0 137.748-61.789 137.748-137.734V283.955L668.74 1.72z m20.29 259.538V134.533l113.393 126.725H689.029z m-512.86-121.8c0-35.46 28.856-64.312 64.323-64.312h375.106v259.538h232.233v549.857c0 35.462-28.856 64.308-64.323 64.308H240.492c-35.467 0-64.323-28.846-64.323-64.308V139.46zM334.08 519.68h355.84c21.212 0 38.4-17.188 38.4-38.4s-17.188-38.4-38.4-38.4H334.08c-21.212 0-38.4 17.188-38.4 38.4s17.188 38.4 38.4 38.4z m0 153.6h355.84c21.212 0 38.4-17.188 38.4-38.4s-17.188-38.4-38.4-38.4H334.08c-21.212 0-38.4 17.188-38.4 38.4s17.188 38.4 38.4 38.4z m0 143.36h355.84c21.212 0 38.4-17.188 38.4-38.4s-17.188-38.4-38.4-38.4H334.08c-21.212 0-38.4 17.188-38.4 38.4s17.188 38.4 38.4 38.4z" p-id="7335"></path></svg>