<?xml version="1.0" standalone="no"?><!DOCTYPE svg PUBLIC "-//W3C//DTD SVG 1.1//EN" "http://www.w3.org/Graphics/SVG/1.1/DTD/svg11.dtd"><svg t="1568854057158" class="icon" viewBox="0 0 1024 1024" version="1.1" xmlns="http://www.w3.org/2000/svg" p-id="3334" xmlns:xlink="http://www.w3.org/1999/xlink" width="200" height="200"><defs><style type="text/css"></style></defs><path d="M913.208 389.877c-9.84-13.456-23.995-22.922-40.477-27.454v-11.974c0-25.173-10.006-50.778-27.451-70.252-19.78-22.078-47.091-34.237-76.904-34.237H493.909l-75.174-96.941a31.957 31.957 0 0 0-25.251-12.377H188.697c-53.845 0-92.926 35.766-92.926 85.043V793.6c0 2.795 0.131 5.56 0.373 8.294-1.711 20.081 3.144 39.112 14.218 54.255 14.171 19.38 37.288 30.494 63.423 30.494H700.54c23.966 0 48.963-9.137 70.388-25.727 20.907-16.19 36.523-38.017 43.984-61.473L922.96 466.266l0.067-0.21c8.814-27.829 5.234-55.594-9.819-76.179z m-747.36-182.603c5.141-4.216 13.469-6.634 22.848-6.634h189.135l75.175 96.941a31.955 31.955 0 0 0 25.25 12.377h290.118c26.376 0 40.424 23.515 40.424 40.49v8.936H323.031c-23.965 0-48.962 9.137-70.387 25.727-20.91 16.193-36.528 38.023-43.987 61.482l-48.954 150.953V221.684c-0.001-8.398 3.507-12.246 6.145-14.41z m696.265 239.353L754.077 779.76l-0.067 0.211c-7.073 22.333-32.558 42.671-53.47 42.671H188.697c-13.214 0-24.384-8.904-27.864-21.034 0.188-0.73 0.392-1.466 0.627-2.213l108.034-333.129 0.067-0.21c7.073-22.333 32.558-42.672 53.47-42.672h526.755c3.966 0 9.239 0.745 11.836 4.296 2.826 3.864 3.008 10.942 0.491 18.947z" p-id="3335"></path></svg>