<?xml version="1.0" standalone="no"?><!DOCTYPE svg PUBLIC "-//W3C//DTD SVG 1.1//EN" "http://www.w3.org/Graphics/SVG/1.1/DTD/svg11.dtd"><svg t="1568855075949" class="icon" viewBox="0 0 1024 1024" version="1.1" xmlns="http://www.w3.org/2000/svg" p-id="5826" xmlns:xlink="http://www.w3.org/1999/xlink" width="200" height="200"><defs><style type="text/css"></style></defs><path d="M512.9 958.5c-246.7 0-447.4-200.7-447.4-447.4S266.2 63.6 512.9 63.6 960.3 264.3 960.3 511 759.6 958.5 512.9 958.5z m0-867.7c-231.8 0-420.3 188.6-420.3 420.3s188.6 420.3 420.3 420.3 420.3-188.6 420.3-420.3S744.7 90.8 512.9 90.8z" fill="#0EC469" p-id="5827"></path><path d="M253.7 493.3S317.6 642.4 417 642.4c95.9 0 387.2-339 387.2-339s-283 462.1-377.7 462.1c-78.7 0.1-135.5-112.4-172.8-272.2z" fill="#0EC469" p-id="5828"></path></svg>