<?xml version="1.0" standalone="no"?><!DOCTYPE svg PUBLIC "-//W3C//DTD SVG 1.1//EN" "http://www.w3.org/Graphics/SVG/1.1/DTD/svg11.dtd"><svg t="1571792662720" class="icon" viewBox="0 0 1024 1024" version="1.1" xmlns="http://www.w3.org/2000/svg" p-id="10347" xmlns:xlink="http://www.w3.org/1999/xlink" width="200" height="200"><defs><style type="text/css"></style></defs><path d="M240.14401367187503 499.29101562500006l263.619140625-254.15332031249991c24.257812499999996-23.387695312499996 24.257812499999996-61.330078125 0-84.7177734375a63.808593749999986 63.808593749999986 0 0 0-87.88183593750001 0L108.33444335937503 456.9189453125a58.40332031249998 58.40332031249998 0 0 0 0 84.7177734375L415.8813183593748 838.1621093750001a63.808593749999986 63.808593749999986 0 0 0 87.88183593750001 0c24.257812499999996-23.387695312499996 24.257812499999996-61.330078125 0-84.7177734375l-263.619140625-254.15332031249991z m359.20019531249994 0l263.619140625-254.15332031249991c24.257812499999996-23.387695312499996 24.257812499999996-61.330078125 0-84.7177734375s-63.62402343749999-23.387695312499996-87.88183593750001 0L467.534638671875 456.9189453125a58.376953125 58.376953125 0 0 0 0 84.7177734375L775.0815136718747 838.1621093750001a63.808593749999986 63.808593749999986 0 0 0 87.88183593750001 0c24.257812499999996-23.387695312499996 24.257812499999996-61.330078125 0-84.7177734375l-263.619140625-254.15332031249991z" p-id="10348"></path></svg>