<?xml version="1.0" standalone="no"?><!DOCTYPE svg PUBLIC "-//W3C//DTD SVG 1.1//EN" "http://www.w3.org/Graphics/SVG/1.1/DTD/svg11.dtd"><svg t="1568854909431" class="icon" viewBox="0 0 1088 1024" version="1.1" xmlns="http://www.w3.org/2000/svg" p-id="3442" xmlns:xlink="http://www.w3.org/1999/xlink" width="212.5" height="200"><defs><style type="text/css"></style></defs><path d="M1087.594937 689.822785l-44.556962 47.189873 45.164557-47.797468z" p-id="3443"></path><path d="M304.202532 483.848101m-25.518988 0a25.518987 25.518987 0 1 0 51.037975 0 25.518987 25.518987 0 1 0-51.037975 0Z" p-id="3444"></path><path d="M434.835443 483.848101m-25.518987 0a25.518987 25.518987 0 1 0 51.037974 0 25.518987 25.518987 0 1 0-51.037974 0Z" p-id="3445"></path><path d="M565.265823 483.848101m-25.518988 0a25.518987 25.518987 0 1 0 51.037975 0 25.518987 25.518987 0 1 0-51.037975 0Z" p-id="3446"></path><path d="M695.898734 483.848101m-25.518987 0a25.518987 25.518987 0 1 0 51.037975 0 25.518987 25.518987 0 1 0-51.037975 0Z" p-id="3447"></path><path d="M826.329114 483.848101m-25.518987 0a25.518987 25.518987 0 1 0 51.037974 0 25.518987 25.518987 0 1 0-51.037974 0Z" p-id="3448"></path><path d="M956.962025 483.848101m-25.518987 0a25.518987 25.518987 0 1 0 51.037975 0 25.518987 25.518987 0 1 0-51.037975 0Z" p-id="3449"></path><path d="M304.202532 609.822785m-25.518988 0a25.518987 25.518987 0 1 0 51.037975 0 25.518987 25.518987 0 1 0-51.037975 0Z" p-id="3450"></path><path d="M434.835443 609.822785m-25.518987 0a25.518987 25.518987 0 1 0 51.037974 0 25.518987 25.518987 0 1 0-51.037974 0Z" p-id="3451"></path><path d="M565.265823 609.822785m-25.518988 0a25.518987 25.518987 0 1 0 51.037975 0 25.518987 25.518987 0 1 0-51.037975 0Z" p-id="3452"></path><path d="M695.898734 609.822785m-25.518987 0a25.518987 25.518987 0 1 0 51.037975 0 25.518987 25.518987 0 1 0-51.037975 0Z" p-id="3453"></path><path d="M826.329114 609.822785m-25.518987 0a25.518987 25.518987 0 1 0 51.037974 0 25.518987 25.518987 0 1 0-51.037974 0Z" p-id="3454"></path><path d="M956.962025 609.822785m-25.518987 0a25.518987 25.518987 0 1 0 51.037975 0 25.518987 25.518987 0 1 0-51.037975 0Z" p-id="3455"></path><path d="M304.202532 735.594937m-25.518988 0a25.518987 25.518987 0 1 0 51.037975 0 25.518987 25.518987 0 1 0-51.037975 0Z" p-id="3456"></path><path d="M434.835443 735.594937m-25.518987 0a25.518987 25.518987 0 1 0 51.037974 0 25.518987 25.518987 0 1 0-51.037974 0Z" p-id="3457"></path><path d="M565.265823 735.594937m-25.518988 0a25.518987 25.518987 0 1 0 51.037975 0 25.518987 25.518987 0 1 0-51.037975 0Z" p-id="3458"></path><path d="M695.898734 735.594937m-25.518987 0a25.518987 25.518987 0 1 0 51.037975 0 25.518987 25.518987 0 1 0-51.037975 0Z" p-id="3459"></path><path d="M980.658228 744.506329a24.303797 24.303797 0 0 1-13.56962 14.379747z" p-id="3460"></path><path d="M304.202532 861.367089m-25.518988 0a25.518987 25.518987 0 1 0 51.037975 0 25.518987 25.518987 0 1 0-51.037975 0Z" p-id="3461"></path><path d="M141.164557 483.848101m-25.518987 0a25.518987 25.518987 0 1 0 51.037974 0 25.518987 25.518987 0 1 0-51.037974 0Z" p-id="3462"></path><path d="M141.164557 609.822785m-25.518987 0a25.518987 25.518987 0 1 0 51.037974 0 25.518987 25.518987 0 1 0-51.037974 0Z" p-id="3463"></path><path d="M141.164557 735.594937m-25.518987 0a25.518987 25.518987 0 1 0 51.037974 0 25.518987 25.518987 0 1 0-51.037974 0Z" p-id="3464"></path><path d="M141.164557 861.367089m-25.518987 0a25.518987 25.518987 0 1 0 51.037974 0 25.518987 25.518987 0 1 0-51.037974 0Z" p-id="3465"></path><path d="M434.835443 861.367089m-25.518987 0a25.518987 25.518987 0 1 0 51.037974 0 25.518987 25.518987 0 1 0-51.037974 0Z" p-id="3466"></path><path d="M565.265823 861.367089m-25.518988 0a25.518987 25.518987 0 1 0 51.037975 0 25.518987 25.518987 0 1 0-51.037975 0Z" p-id="3467"></path><path d="M695.898734 861.367089m-25.518987 0a25.518987 25.518987 0 1 0 51.037975 0 25.518987 25.518987 0 1 0-51.037975 0Z" p-id="3468"></path><path d="M948.455696 837.468354l-15.594937 16.202532a23.493671 23.493671 0 0 1 14.987342-15.797468z" p-id="3469"></path><path d="M0 107.949367v916.050633h772.050633l42.531645-44.962025 118.278481-125.164557a23.493671 23.493671 0 0 1 14.987342-15.797469l94.78481-101.265822 44.556962-47.189874V107.949367z m980.860759 636.35443a24.303797 24.303797 0 0 1-13.56962 14.379747l-154.329114 163.037975v-191.392405h182.278481z m60.759494-54.075949H771.037975v288.607595H45.164557V373.063291h942.987342v-45.164557H45.164557V153.316456h997.468354z" p-id="3470"></path><path d="M967.088608 758.886076a24.303797 24.303797 0 0 0 13.56962-14.379747z m120.101265-68.658228l-44.556962 47.189874-94.78481 101.265822a23.493671 23.493671 0 0 0-14.987342 15.797469l15.594937-16.202532 94.177215-99.443038 45.164557-47.797468z" p-id="3471"></path><path d="M130.835443 211.64557a20.253165 20.253165 0 0 1-20.253165-20.253165V84.253165a21.265823 21.265823 0 0 1 2.632912-9.924051L148.860759 10.329114A20.253165 20.253165 0 0 1 176.405063 2.632911a20.253165 20.253165 0 0 1 7.898734 27.544304l-30.582278 54.683544a21.265823 21.265823 0 0 0-2.632911 9.924051v96.607595a20.253165 20.253165 0 0 1-20.253165 20.253165zM268.556962 211.64557a20.253165 20.253165 0 0 1-20.253165-20.253165V84.253165a21.265823 21.265823 0 0 1 2.632912-9.924051L286.582278 10.329114a20.253165 20.253165 0 0 1 27.544304-7.696203 20.253165 20.253165 0 0 1 7.898734 27.544304l-30.582278 54.683544a21.265823 21.265823 0 0 0-2.632911 9.924051v96.607595a20.253165 20.253165 0 0 1-20.253165 20.253165zM406.481013 211.64557a20.253165 20.253165 0 0 1-20.253165-20.253165V84.253165a20.253165 20.253165 0 0 1 2.43038-9.924051L425.316456 10.329114a20.253165 20.253165 0 0 1 26.531645-7.696203 20.253165 20.253165 0 0 1 7.898734 27.544304l-30.582278 54.683544a20.253165 20.253165 0 0 0-2.43038 9.924051v96.607595a20.253165 20.253165 0 0 1-20.253164 20.253165zM544.202532 211.64557a20.253165 20.253165 0 0 1-20.253165-20.253165V84.253165a20.253165 20.253165 0 0 1 2.632911-9.924051L562.025316 10.329114a20.253165 20.253165 0 0 1 27.544304-7.696203 20.253165 20.253165 0 0 1 7.898734 27.544304L567.088608 84.860759a20.253165 20.253165 0 0 0-2.43038 9.924051v96.607595a20.253165 20.253165 0 0 1-20.455696 20.253165zM681.924051 211.64557a20.253165 20.253165 0 0 1-20.253165-20.253165V84.253165a20.253165 20.253165 0 0 1 2.43038-9.924051L699.746835 10.329114a20.253165 20.253165 0 0 1 27.544304-7.696203 20.253165 20.253165 0 0 1 7.898734 27.544304l-30.582278 54.683544a20.253165 20.253165 0 0 0-2.43038 9.924051v96.607595a20.253165 20.253165 0 0 1-20.253164 20.253165zM819.443038 211.64557a20.253165 20.253165 0 0 1-20.253165-20.253165V84.253165a21.265823 21.265823 0 0 1 2.632912-9.924051L837.468354 10.329114a20.253165 20.253165 0 0 1 27.544304-7.696203 20.253165 20.253165 0 0 1 7.898734 27.544304l-30.582278 54.683544a21.265823 21.265823 0 0 0-2.632911 9.924051v96.607595a20.253165 20.253165 0 0 1-20.253165 20.253165zM957.164557 211.64557a20.253165 20.253165 0 0 1-20.253165-20.253165V84.253165a21.265823 21.265823 0 0 1 2.632912-9.924051L975.189873 10.329114a20.253165 20.253165 0 0 1 27.544304-7.696203 20.253165 20.253165 0 0 1 7.898734 27.544304l-30.582278 54.683544a21.265823 21.265823 0 0 0-2.632911 9.924051v96.607595a20.253165 20.253165 0 0 1-20.253165 20.253165z" p-id="3472"></path></svg>