<?xml version="1.0" standalone="no"?><!DOCTYPE svg PUBLIC "-//W3C//DTD SVG 1.1//EN" "http://www.w3.org/Graphics/SVG/1.1/DTD/svg11.dtd"><svg t="1568854991120" class="icon" viewBox="0 0 1024 1024" version="1.1" xmlns="http://www.w3.org/2000/svg" p-id="4346" xmlns:xlink="http://www.w3.org/1999/xlink" width="200" height="200"><defs><style type="text/css"></style></defs><path d="M696.901818 988.113455c-0.023273 0-0.023273 0-0.046545 0-12.846545-0.023273-23.249455-10.472727-23.226182-23.319273l1.675636-879.895273c0.023273-12.846545 10.426182-23.226182 23.272727-23.226182 0.023273 0 0.023273 0 0.046545 0 12.846545 0.023273 23.249455 10.472727 23.226182 23.319273l-1.675636 879.895273C720.151273 977.710545 709.748364 988.113455 696.901818 988.113455z" p-id="4347"></path><path d="M696.878545 988.113455c-3.677091 0-7.400727-0.884364-10.891636-2.722909l-394.193455-209.431273c-11.357091-6.027636-15.685818-20.130909-9.634909-31.488 6.027636-11.357091 20.084364-15.662545 31.464727-9.634909l394.193455 209.431273c11.357091 6.027636 15.685818 20.130909 9.634909 31.488C713.262545 983.621818 705.233455 988.113455 696.878545 988.113455z" p-id="4348"></path><path d="M285.300364 305.128727c-8.704 0-17.035636-4.887273-21.015273-13.265455-5.538909-11.613091-0.605091-25.483636 11.008-31.022545l413.323636-196.933818c11.636364-5.538909 25.483636-0.605091 30.999273 11.008 5.538909 11.613091 0.605091 25.483636-11.008 31.022545l-413.323636 196.933818C292.049455 304.407273 288.628364 305.128727 285.300364 305.128727z" p-id="4349"></path><path d="M861.649455 812.357818c-7.307636 0-14.545455-3.444364-19.060364-9.890909-7.377455-10.519273-4.840727-25.041455 5.655273-32.418909 80.802909-56.738909 129.024-149.294545 129.024-247.575273s-48.221091-190.836364-129.024-247.575273c-10.496-7.377455-13.056-21.899636-5.655273-32.418909 7.377455-10.519273 21.922909-13.056 32.442182-5.678545 93.160727 65.466182 148.805818 172.241455 148.805818 285.672727s-55.645091 220.206545-148.805818 285.672727C870.958545 810.984727 866.280727 812.357818 861.649455 812.357818z" p-id="4350"></path><path d="M177.408 778.682182 116.549818 778.682182c-64.162909 0-116.363636-52.200727-116.363636-116.363636L0.186182 374.946909c0-64.162909 52.200727-116.363636 116.363636-116.363636l167.749818 0c12.869818 0 23.272727 10.426182 23.272727 23.272727s-10.402909 23.272727-23.272727 23.272727L116.549818 305.128727c-38.493091 0-69.818182 31.325091-69.818182 69.818182l0 287.371636c0 38.493091 31.325091 69.818182 69.818182 69.818182l60.858182 0c12.869818 0 23.272727 10.426182 23.272727 23.272727S190.277818 778.682182 177.408 778.682182z" p-id="4351"></path></svg>