<?xml version="1.0" standalone="no"?><!DOCTYPE svg PUBLIC "-//W3C//DTD SVG 1.1//EN" "http://www.w3.org/Graphics/SVG/1.1/DTD/svg11.dtd"><svg t="1571792854026" class="icon" viewBox="0 0 1024 1024" version="1.1" xmlns="http://www.w3.org/2000/svg" p-id="12269" xmlns:xlink="http://www.w3.org/1999/xlink" width="200" height="200"><defs><style type="text/css"></style></defs><path d="M776 479c-0.5-17.2-14.6-31-32-31H543.4v-65.3h164.1c35.3 0 64-28.7 64-64V191.6c0-35.3-28.7-64-64-64h-386c-35.3 0-64 28.7-64 64v127.1c0 35.3 28.7 64 64 64h157.9V448H278.5c-17.3 0-31.4 13.8-32 31v113.5h64V512H712v80.5h64V479zM321.5 192.6h386v127.1h-386V192.6z m65.7 383.9h-196c-35.3 0-64 28.7-64 64v127.1c0 35.3 28.7 64 64 64h196c35.3 0 64-28.7 64-64V640.5c0-35.4-28.7-64-64-64z m0 192.1h-196V641.5h196v127.1zM830 576.5H634c-35.3 0-64 28.7-64 64v127.1c0 35.3 28.7 64 64 64h196c35.3 0 64-28.7 64-64V640.5c0-35.4-28.7-64-64-64z m0 192.1H634V641.5h196v127.1z" p-id="12270"></path></svg>