<svg xmlns="http://www.w3.org/2000/svg" width="28.966" height="29.944" viewBox="0 0 28.966 29.944">
  <path id="路径_4777" data-name="路径 4777" d="M1786.916,2229.738a5.547,5.547,0,1,0-5.568-5.546A5.591,5.591,0,0,0,1786.916,2229.738Zm-4.839.528a7.78,7.78,0,1,1,12.627-6.108,7.89,7.89,0,0,1-2.95,6.108,13.278,13.278,0,0,1,9.611,12.744,3.353,3.353,0,0,1-3.347,3.334h-22.271a3.353,3.353,0,0,1-3.347-3.334A13.448,13.448,0,0,1,1782.077,2230.266Zm15.974,13.866a1.137,1.137,0,0,0,1.127-1.122,11.139,11.139,0,0,0-11.136-11.093h-2.22a11.139,11.139,0,0,0-11.136,11.093,1.137,1.137,0,0,0,1.127,1.122Z" transform="translate(-1772.4 -2216.4)"/>
</svg>
